# xmcd
#
# Track frame offsets:
#	150
#	37290
#	76170
#	104995
#	141495
#	162148
#	227310
#	256029
#
# Disc length: 3920 seconds
#
# Revision: 0
# Processed by: cddbd v1.5.2PL0 Copyright (c) Steve Scherf et al.
# Submitted via: dBpowerAMP V4.0
#
DISCID=650f4e08
DTITLE=Bryan Lee - Oldschool Blues
DYEAR=2010
DGENRE=Blues
TTITLE0=1.TV Mama
TTITLE1=2.Old Man Blues
TTITLE2=3.Braille Blues Daddy
TTITLE3=4.She Hugs Me Till It Hurts
TTITLE4=5.Low Down and Dirty
TTITLE5=6.The Things I Used To Do
TTITLE6=7.Old School Blues Man
TTITLE7=8.Congo Square
EXTD=
EXTT0=
EXTT1=
EXTT2=
EXTT3=
EXTT4=
EXTT5=
EXTT6=
EXTT7=
PLAYORDER=
